<svg xmlns="http://www.w3.org/2000/svg" xmlns:xlink="http://www.w3.org/1999/xlink" version="1.1" x="0px" y="0px" viewBox="0 0 48 60" style="enable-background:new 0 0 48 48;" xml:space="preserve"><path d="M32.9,29.9c-0.1-0.1-0.2-0.2-0.4-0.3c2.1-2.7,3.4-6.2,3.4-9.9c0-8.9-7.2-16.1-16.1-16.1S3.7,10.8,3.7,19.7  s7.2,16.1,16.1,16.1c3.6,0,6.9-1.2,9.6-3.2c0.1,0.1,0.2,0.3,0.3,0.4l10.7,10.7c0.9,0.9,2.3,0.9,3.2,0c0.9-0.9,0.9-2.3,0-3.2  L32.9,29.9z M19.8,31.3c-6.4,0-11.6-5.2-11.6-11.6S13.4,8.1,19.8,8.1s11.6,5.2,11.6,11.6S26.2,31.3,19.8,31.3z"/><text x="0" y="63" fill="#000000" font-size="5px" font-weight="bold" font-family="'Helvetica Neue', Helvetica, Arial-Unicode, Arial, Sans-serif">Created by Luca Santomauro</text><text x="0" y="68" fill="#000000" font-size="5px" font-weight="bold" font-family="'Helvetica Neue', Helvetica, Arial-Unicode, Arial, Sans-serif">from the Noun Project</text></svg>